<mxfile host="app.diagrams.net" modified="2023-07-28T14:58:48.953Z" agent="Mozilla/5.0 (Macintosh; Intel Mac OS X 10_15_7) AppleWebKit/537.36 (KHTML, like Gecko) Chrome/114.0.0.0 Safari/537.36" etag="2ysmtaDMqNYWQL9a7tOy" version="21.6.5" type="github">
  <diagram name="Page-1" id="03018318-947c-dd8e-b7a3-06fadd420f32">
    <mxGraphModel dx="2074" dy="2013" grid="1" gridSize="10" guides="1" tooltips="1" connect="1" arrows="1" fold="1" page="1" pageScale="1" pageWidth="1100" pageHeight="850" background="#ffffff" math="0" shadow="0">
      <root>
        <mxCell id="0" />
        <mxCell id="1" parent="0" />
        <mxCell id="677b7b8949515195-1" value="" style="whiteSpace=wrap;html=1;rounded=0;shadow=0;labelBackgroundColor=none;strokeColor=#000000;strokeWidth=1;fillColor=none;fontFamily=Verdana;fontSize=12;fontColor=#000000;align=center;comic=1;" parent="1" vertex="1">
          <mxGeometry x="20" y="20" width="1060" height="810" as="geometry" />
        </mxCell>
        <mxCell id="677b7b8949515195-2" value="LOGO" style="whiteSpace=wrap;html=1;rounded=0;shadow=0;labelBackgroundColor=none;strokeWidth=1;fontFamily=Verdana;fontSize=17;align=center;comic=1;" parent="1" vertex="1">
          <mxGeometry x="30" y="30" width="70" height="40" as="geometry" />
        </mxCell>
        <mxCell id="677b7b8949515195-3" value="Search" style="strokeWidth=1;shadow=0;dashed=0;align=center;html=1;shape=mxgraph.mockup.forms.searchBox;strokeColor=#999999;mainText=;strokeColor2=#008cff;fontColor=#666666;fontSize=17;align=left;spacingLeft=3;rounded=0;labelBackgroundColor=none;comic=1;" parent="1" vertex="1">
          <mxGeometry x="360" y="130" width="390" height="30" as="geometry" />
        </mxCell>
        <mxCell id="677b7b8949515195-4" value="quantms" style="text;html=1;points=[];align=left;verticalAlign=top;spacingTop=-4;fontSize=14;fontFamily=Verdana" parent="1" vertex="1">
          <mxGeometry x="740" y="40" width="60" height="20" as="geometry" />
        </mxCell>
        <mxCell id="677b7b8949515195-5" value="datasets" style="text;html=1;points=[];align=left;verticalAlign=top;spacingTop=-4;fontSize=14;fontFamily=Verdana" parent="1" vertex="1">
          <mxGeometry x="830" y="40" width="60" height="20" as="geometry" />
        </mxCell>
        <mxCell id="677b7b8949515195-6" value="absolute" style="text;html=1;points=[];align=left;verticalAlign=top;spacingTop=-4;fontSize=14;fontFamily=Verdana" parent="1" vertex="1">
          <mxGeometry x="915" y="40" width="60" height="20" as="geometry" />
        </mxCell>
        <mxCell id="677b7b8949515195-7" value="help" style="text;html=1;points=[];align=left;verticalAlign=top;spacingTop=-4;fontSize=14;fontFamily=Verdana" parent="1" vertex="1">
          <mxGeometry x="1000" y="40" width="60" height="20" as="geometry" />
        </mxCell>
        <mxCell id="677b7b8949515195-9" value="" style="line;strokeWidth=1;html=1;rounded=0;shadow=0;labelBackgroundColor=none;fillColor=none;fontFamily=Verdana;fontSize=14;fontColor=#000000;align=center;comic=1;" parent="1" vertex="1">
          <mxGeometry x="20" y="70" width="1060" height="10" as="geometry" />
        </mxCell>
        <mxCell id="677b7b8949515195-15" value="&lt;div style=&quot;text-align: justify&quot;&gt;Text describing the initiative and the results.&lt;/div&gt;" style="whiteSpace=wrap;html=1;rounded=0;shadow=0;labelBackgroundColor=none;strokeWidth=1;fillColor=none;fontFamily=Verdana;fontSize=12;align=center;verticalAlign=top;spacing=10;comic=1;" parent="1" vertex="1">
          <mxGeometry x="90" y="450" width="920" height="70" as="geometry" />
        </mxCell>
        <mxCell id="yzn5Dcp2r0DAvpw1gpCk-1" value="" style="line;strokeWidth=1;html=1;rounded=0;shadow=0;labelBackgroundColor=none;fillColor=none;fontFamily=Verdana;fontSize=14;fontColor=#000000;align=center;comic=1;" vertex="1" parent="1">
          <mxGeometry x="20" y="200" width="1060" height="50" as="geometry" />
        </mxCell>
        <mxCell id="yzn5Dcp2r0DAvpw1gpCk-4" value="" style="group" vertex="1" connectable="0" parent="1">
          <mxGeometry x="100" y="270" width="230" height="120" as="geometry" />
        </mxCell>
        <mxCell id="677b7b8949515195-26" value="" style="whiteSpace=wrap;html=1;rounded=0;shadow=0;labelBackgroundColor=none;strokeWidth=1;fillColor=none;fontFamily=Verdana;fontSize=12;align=center;comic=1;" parent="yzn5Dcp2r0DAvpw1gpCk-4" vertex="1">
          <mxGeometry width="230" height="120" as="geometry" />
        </mxCell>
        <mxCell id="677b7b8949515195-42" value="quantms" style="text;html=1;points=[];align=left;verticalAlign=top;spacingTop=-4;fontSize=14;fontFamily=Verdana" parent="yzn5Dcp2r0DAvpw1gpCk-4" vertex="1">
          <mxGeometry x="80" y="70" width="70" height="20" as="geometry" />
        </mxCell>
        <mxCell id="yzn5Dcp2r0DAvpw1gpCk-3" value="" style="rounded=1;whiteSpace=wrap;html=1;strokeWidth=2;fillWeight=4;hachureGap=8;hachureAngle=45;fillColor=#1ba1e2;sketch=1;" vertex="1" parent="yzn5Dcp2r0DAvpw1gpCk-4">
          <mxGeometry x="100" y="30" width="25" height="30" as="geometry" />
        </mxCell>
        <mxCell id="yzn5Dcp2r0DAvpw1gpCk-5" value="" style="group" vertex="1" connectable="0" parent="1">
          <mxGeometry x="370" y="270" width="230" height="120" as="geometry" />
        </mxCell>
        <mxCell id="yzn5Dcp2r0DAvpw1gpCk-6" value="" style="whiteSpace=wrap;html=1;rounded=0;shadow=0;labelBackgroundColor=none;strokeWidth=1;fillColor=none;fontFamily=Verdana;fontSize=12;align=center;comic=1;" vertex="1" parent="yzn5Dcp2r0DAvpw1gpCk-5">
          <mxGeometry width="230" height="120" as="geometry" />
        </mxCell>
        <mxCell id="yzn5Dcp2r0DAvpw1gpCk-7" value="datasets" style="text;html=1;points=[];align=left;verticalAlign=top;spacingTop=-4;fontSize=14;fontFamily=Verdana" vertex="1" parent="yzn5Dcp2r0DAvpw1gpCk-5">
          <mxGeometry x="80" y="70" width="70" height="20" as="geometry" />
        </mxCell>
        <mxCell id="yzn5Dcp2r0DAvpw1gpCk-8" value="" style="rounded=1;whiteSpace=wrap;html=1;strokeWidth=2;fillWeight=4;hachureGap=8;hachureAngle=45;fillColor=#E2C861;sketch=1;" vertex="1" parent="yzn5Dcp2r0DAvpw1gpCk-5">
          <mxGeometry x="100" y="30" width="25" height="30" as="geometry" />
        </mxCell>
        <mxCell id="yzn5Dcp2r0DAvpw1gpCk-9" value="" style="group" vertex="1" connectable="0" parent="1">
          <mxGeometry x="660" y="270" width="230" height="120" as="geometry" />
        </mxCell>
        <mxCell id="yzn5Dcp2r0DAvpw1gpCk-10" value="" style="whiteSpace=wrap;html=1;rounded=0;shadow=0;labelBackgroundColor=none;strokeWidth=1;fillColor=none;fontFamily=Verdana;fontSize=12;align=center;comic=1;" vertex="1" parent="yzn5Dcp2r0DAvpw1gpCk-9">
          <mxGeometry x="10" width="230" height="120" as="geometry" />
        </mxCell>
        <mxCell id="yzn5Dcp2r0DAvpw1gpCk-11" value="absolute &lt;br&gt;expression" style="text;html=1;points=[];align=center;verticalAlign=top;spacingTop=-4;fontSize=14;fontFamily=Verdana" vertex="1" parent="yzn5Dcp2r0DAvpw1gpCk-9">
          <mxGeometry x="80" y="70" width="70" height="20" as="geometry" />
        </mxCell>
        <mxCell id="yzn5Dcp2r0DAvpw1gpCk-12" value="" style="rounded=1;whiteSpace=wrap;html=1;strokeWidth=2;fillWeight=4;hachureGap=8;hachureAngle=45;fillColor=#E2230E;sketch=1;" vertex="1" parent="yzn5Dcp2r0DAvpw1gpCk-9">
          <mxGeometry x="100" y="30" width="25" height="30" as="geometry" />
        </mxCell>
        <mxCell id="yzn5Dcp2r0DAvpw1gpCk-14" value="" style="whiteSpace=wrap;html=1;rounded=0;shadow=0;labelBackgroundColor=none;strokeWidth=1;fillColor=none;fontFamily=Verdana;fontSize=12;align=center;comic=1;" vertex="1" parent="1">
          <mxGeometry x="225" y="560" width="230" height="200" as="geometry" />
        </mxCell>
        <mxCell id="yzn5Dcp2r0DAvpw1gpCk-17" value="" style="whiteSpace=wrap;html=1;rounded=0;shadow=0;labelBackgroundColor=none;strokeWidth=1;fillColor=none;fontFamily=Verdana;fontSize=12;align=center;comic=1;" vertex="1" parent="1">
          <mxGeometry x="560" y="560" width="230" height="200" as="geometry" />
        </mxCell>
        <mxCell id="yzn5Dcp2r0DAvpw1gpCk-18" value="Plot" style="html=1;whiteSpace=wrap;shape=isoCube2;backgroundOutline=1;isoAngle=15;" vertex="1" parent="1">
          <mxGeometry x="290" y="610" width="90" height="100" as="geometry" />
        </mxCell>
        <mxCell id="yzn5Dcp2r0DAvpw1gpCk-19" value="Plot" style="html=1;whiteSpace=wrap;shape=isoCube2;backgroundOutline=1;isoAngle=15;" vertex="1" parent="1">
          <mxGeometry x="630" y="610" width="90" height="100" as="geometry" />
        </mxCell>
        <mxCell id="yzn5Dcp2r0DAvpw1gpCk-20" value="EBI Logo" style="text;html=1;strokeColor=none;fillColor=none;align=center;verticalAlign=middle;whiteSpace=wrap;rounded=0;" vertex="1" parent="1">
          <mxGeometry x="990" y="780" width="60" height="30" as="geometry" />
        </mxCell>
        <mxCell id="yzn5Dcp2r0DAvpw1gpCk-21" value="OpenMS Logo" style="text;html=1;strokeColor=none;fillColor=none;align=center;verticalAlign=middle;whiteSpace=wrap;rounded=0;" vertex="1" parent="1">
          <mxGeometry x="880" y="780" width="130" height="30" as="geometry" />
        </mxCell>
        <mxCell id="yzn5Dcp2r0DAvpw1gpCk-22" value="OpenMS Logo" style="text;html=1;strokeColor=none;fillColor=none;align=center;verticalAlign=middle;whiteSpace=wrap;rounded=0;" vertex="1" parent="1">
          <mxGeometry x="770" y="780" width="130" height="30" as="geometry" />
        </mxCell>
        <mxCell id="yzn5Dcp2r0DAvpw1gpCk-23" value="Home page" style="text;strokeColor=none;fillColor=none;html=1;fontSize=24;fontStyle=1;verticalAlign=middle;align=center;" vertex="1" parent="1">
          <mxGeometry x="460" y="-50" width="100" height="40" as="geometry" />
        </mxCell>
        <mxCell id="yzn5Dcp2r0DAvpw1gpCk-24" value="Datasets" style="text;strokeColor=none;fillColor=none;html=1;fontSize=24;fontStyle=1;verticalAlign=middle;align=center;" vertex="1" parent="1">
          <mxGeometry x="450" y="900" width="100" height="40" as="geometry" />
        </mxCell>
      </root>
    </mxGraphModel>
  </diagram>
</mxfile>
